<!-- logo with extra spacing to right <svg width="231" height="30" viewBox="0 0 231 30" fill="none" xmlns="http://www.w3.org/2000/svg">
    <path d="M19.0821 10.897C21.3299 8.64533 21.3299 4.94047 19.0821 2.68877C16.8342 0.437075 13.1357 0.437075 10.8878 2.68877C8.63994 4.94047 8.63994 8.64533 10.8878 10.897C12.2527 12.2643 13.62 13.6339 14.9849 15.0012C16.3499 13.6339 17.7171 12.2643 19.0821 10.897Z" fill="#C2BEE6" stroke="white" stroke-width="1.5"/>
    <path d="M10.8903 27.3112C13.1382 29.5629 16.8367 29.5629 19.0846 27.3112C21.3324 25.0595 21.3324 21.3547 19.0846 19.103C16.3524 16.3684 13.6225 13.6316 10.8903 10.897C10.5914 10.5953 9.25193 9.17924 9.19631 6.93683C9.13606 4.51103 10.6261 2.95574 10.8903 2.68878C8.15812 5.42564 5.42824 8.16018 2.69605 10.897C2.37393 11.222 1.10864 12.5777 1.00667 14.7203C0.88617 17.2111 2.43418 18.8383 2.69605 19.1053L10.8903 27.3112Z" fill="#665DC0" stroke="white" stroke-width="1.5"/>
    <path d="M27.2509 19.103C25.003 21.3547 25.003 25.0595 27.2509 27.3112C29.4987 29.5629 33.1973 29.5629 35.4451 27.3112C37.693 25.0595 37.693 21.3547 35.4451 19.103C34.0802 17.7357 32.713 16.3661 31.348 14.9988C29.9831 16.3661 28.6158 17.7357 27.2509 19.103Z" fill="#C2BEE6" stroke="white" stroke-width="1.5"/>
    <path d="M35.4432 2.68878C33.1954 0.437083 29.4968 0.437083 27.249 2.68878C25.0011 4.94048 25.0011 8.64533 27.249 10.897C29.9812 13.6316 32.711 16.3684 35.4432 19.103C35.7422 19.4047 37.0816 20.8208 37.1372 23.0632C37.1975 25.489 35.7074 27.0443 35.4432 27.3112C38.1754 24.5744 40.9053 21.8398 43.6375 19.103C43.9596 18.778 45.2249 17.4223 45.3269 15.2797C45.4474 12.7889 43.8994 11.1617 43.6375 10.8947L35.4432 2.68878Z" fill="#665DC0" stroke="white" stroke-width="1.5"/>
    <path d="M55.7089 11.3913C56.1578 10.929 56.6853 10.5606 57.2759 10.2964C57.8586 10.0373 58.4885 9.90518 59.1525 9.90518C59.8953 9.90518 60.4885 9.99663 60.9189 10.1745C61.3651 10.3599 61.8061 10.6343 62.2286 10.9874C62.2365 10.9925 62.2418 10.9976 62.2496 11.0026C62.583 11.2541 62.9399 11.3634 63.3126 11.338C63.6722 11.31 63.9845 11.1779 64.2418 10.9493C64.52 10.7003 64.667 10.3726 64.667 9.99918C64.667 9.84929 64.6538 9.71973 64.625 9.60033C64.5908 9.45807 64.5252 9.32089 64.4307 9.18879C64.3415 9.06431 64.2234 8.94745 64.0974 8.85599C63.3494 8.26154 62.5882 7.82713 61.8349 7.56293C61.0816 7.30127 60.1788 7.16663 59.1525 7.16663C58.0502 7.16663 57.0134 7.3724 56.0685 7.77632C55.1289 8.18025 54.2942 8.74422 53.5882 9.45299C52.8822 10.1618 52.3257 10.9976 51.9294 11.9375C51.5331 12.8775 51.3336 13.9063 51.3336 14.9911C51.3336 16.0758 51.5331 17.125 51.9294 18.07C52.3231 19.0151 52.8822 19.8559 53.5882 20.5647C54.2942 21.276 55.1341 21.8375 56.0816 22.2338C57.0318 22.6326 58.0659 22.8333 59.1525 22.8333C60.0659 22.8333 60.9478 22.6885 61.7772 22.4014C62.604 22.1169 63.3887 21.6876 64.1105 21.1312C64.1263 21.1185 64.142 21.1058 64.1551 21.0931C64.3047 20.9483 64.4176 20.7857 64.4937 20.6104C64.5698 20.4326 64.6092 20.2472 64.6092 20.0566C64.6092 19.6552 64.4832 19.3225 64.2365 19.0735C63.9977 18.8347 63.6906 18.6924 63.3441 18.6645C62.9977 18.6365 62.6512 18.7382 62.3179 18.9719C61.8297 19.3225 61.3152 19.5968 60.7877 19.7924C60.2785 19.983 59.7273 20.0795 59.1525 20.0795C58.4858 20.0795 57.8533 19.9499 57.2706 19.6934C56.6827 19.4368 56.1551 19.071 55.7063 18.6111C55.2575 18.1488 54.9005 17.6026 54.6486 16.9904C54.3966 16.3756 54.2706 15.7049 54.2706 14.9911C54.2706 14.2772 54.3992 13.6243 54.6486 13.0096C54.9005 12.3948 55.2575 11.8537 55.7089 11.3913Z" fill="#29254D"/>
    <path d="M75.1744 11.9152C74.301 11.4188 73.294 11.1667 72.1776 11.1667C71.0611 11.1667 70.0355 11.4188 69.1621 11.9152C68.286 12.4143 67.5889 13.1098 67.0868 13.9858C66.5873 14.8591 66.3336 15.8758 66.3336 17.0093C66.3336 18.1428 66.5873 19.1409 67.0868 20.0142C67.5889 20.8902 68.286 21.5883 69.1621 22.0847C70.0355 22.5811 71.0504 22.8333 72.1776 22.8333C73.3047 22.8333 74.3197 22.5811 75.1931 22.0847C76.0691 21.5857 76.7636 20.8876 77.2604 20.0116C77.7518 19.1382 78.0002 18.1295 78.0002 17.0093C78.0002 15.8891 77.7465 14.8591 77.247 13.9858C76.7449 13.1098 76.0478 12.4116 75.1717 11.9152H75.1744ZM72.1776 20.054C71.6033 20.054 71.1145 19.9293 70.6845 19.6718C70.2492 19.4116 69.918 19.0665 69.6669 18.61C69.4158 18.156 69.2903 17.6172 69.2903 17.0119C69.2903 16.4067 69.4185 15.8625 69.6696 15.4006C69.9206 14.9414 70.2518 14.591 70.6872 14.3335C71.1199 14.076 71.6087 13.9513 72.1802 13.9513C72.7518 13.9513 73.2433 14.076 73.6733 14.3335C74.106 14.591 74.4345 14.9387 74.6776 15.398C74.9233 15.8599 75.0488 16.404 75.0488 17.0119C75.0488 17.6198 74.9233 18.1613 74.6802 18.6153C74.4345 19.0692 74.106 19.4143 73.6733 19.6718C73.2406 19.9293 72.7518 20.054 72.1776 20.054Z" fill="#29254D"/>
    <path d="M89.8213 7.16663C89.4046 7.16663 89.0332 7.30639 88.7474 7.57298C88.4588 7.84475 88.3065 8.20969 88.3065 8.63416V12.4596C88.0447 12.2707 87.7615 12.105 87.4597 11.9626C86.7464 11.6236 85.9636 11.4528 85.1274 11.4528C84.0935 11.4528 83.1505 11.709 82.3223 12.2137C81.5021 12.7132 80.8476 13.3991 80.3747 14.2532C79.9045 15.1022 79.6667 16.0728 79.6667 17.134C79.6667 18.1952 79.9259 19.1813 80.4415 20.0406C80.9544 20.8973 81.6597 21.5858 82.5387 22.0827C83.4203 22.5796 84.4194 22.8333 85.5094 22.8333C86.5994 22.8333 87.5986 22.5796 88.4722 22.0827C89.3431 21.5858 90.0457 20.8999 90.5587 20.0432C91.0716 19.1839 91.3334 18.2055 91.3334 17.1366V8.63416C91.3334 8.21487 91.1865 7.84992 90.906 7.57816C90.6281 7.30898 90.2514 7.16663 89.816 7.16663H89.8213ZM85.5121 20.1182C84.9644 20.1182 84.4862 19.994 84.0481 19.7377C83.6073 19.4789 83.268 19.1321 83.0089 18.674C82.7524 18.2184 82.6215 17.7008 82.6215 17.134C82.6215 16.5671 82.7497 16.0391 83.0062 15.5965C83.2627 15.1514 83.6046 14.8071 84.0481 14.5483C84.4862 14.2921 84.9644 14.1652 85.5121 14.1652C86.0598 14.1652 86.5513 14.2895 86.9841 14.5457C87.4196 14.8045 87.7535 15.1462 88.0073 15.5914C88.2585 16.034 88.384 16.5516 88.384 17.1314C88.384 17.7111 88.2558 18.221 88.0047 18.6766C87.7535 19.1321 87.4196 19.4789 86.9841 19.7377C86.554 19.994 86.0731 20.1182 85.5121 20.1182Z" fill="#29254D"/>
    <path d="M102.068 11.9044C101.222 11.4135 100.209 11.1667 99.049 11.1667C97.8894 11.1667 96.8314 11.4188 95.9201 11.9177C95.0087 12.4167 94.2836 13.1146 93.7701 13.9931C93.2594 14.8662 92.9999 15.88 92.9999 17.0106C92.9999 18.1412 93.2764 19.147 93.8181 20.0202C94.3626 20.896 95.1244 21.5939 96.0865 22.0902C97.0402 22.5839 98.1405 22.8333 99.3538 22.8333C100.037 22.8333 100.756 22.7139 101.492 22.4803C102.234 22.2442 102.869 21.9336 103.372 21.5594C103.854 21.2144 103.936 20.8004 103.919 20.5164C103.896 20.1422 103.71 19.8052 103.355 19.5106C103.072 19.2877 102.723 19.1709 102.353 19.1842C102 19.1948 101.673 19.3009 101.371 19.5106C101.145 19.6698 100.838 19.8132 100.454 19.9405C100.076 20.0653 99.7064 20.129 99.3538 20.129C98.6851 20.129 98.0869 19.991 97.5791 19.7203C97.0656 19.4469 96.6762 19.086 96.3856 18.6162C96.3066 18.4862 96.2389 18.3535 96.1796 18.2102H103.168C103.583 18.2102 103.95 18.0775 104.229 17.8227C104.514 17.5626 104.667 17.2229 104.667 16.8381C104.667 15.7553 104.446 14.7813 104.009 13.94C103.563 13.0801 102.909 12.3981 102.06 11.9044H102.068ZM99.049 13.871C99.619 13.871 100.082 13.9851 100.465 14.224C100.855 14.4655 101.148 14.7866 101.363 15.2059C101.43 15.336 101.487 15.474 101.535 15.6199H96.2079C96.2445 15.5297 96.284 15.4421 96.3264 15.3599C96.5662 14.8954 96.9048 14.5398 97.3646 14.2718C97.8217 14.0064 98.386 13.8737 99.049 13.8737V13.871Z" fill="#29254D"/>
    <path d="M117.375 9.37203C116.64 8.66984 115.766 8.11849 114.773 7.73878C113.784 7.35908 112.676 7.16663 111.478 7.16663H107.907C107.479 7.16663 107.092 7.31227 106.796 7.58534C106.492 7.86362 106.333 8.23552 106.333 8.66203V21.3379C106.333 21.7488 106.492 22.1155 106.791 22.399C107.09 22.6825 107.476 22.8333 107.909 22.8333H111.481C112.679 22.8333 113.787 22.6408 114.776 22.2611C115.768 21.8814 116.643 21.3301 117.378 20.6279C118.112 19.9257 118.682 19.0831 119.077 18.1286C119.469 17.1794 119.666 16.1235 119.666 14.9896C119.666 13.8556 119.469 12.8024 119.074 11.8583C118.68 10.9116 118.109 10.0742 117.375 9.36943V9.37203ZM116.594 14.9896C116.594 15.983 116.372 16.8699 115.93 17.6319C115.492 18.3887 114.886 18.9894 114.126 19.4212C113.367 19.8503 112.476 20.0687 111.476 20.0687H109.477V9.92858H111.476C112.476 9.92858 113.37 10.1444 114.129 10.5684C114.889 10.9923 115.494 11.5878 115.93 12.3368C116.369 13.091 116.594 13.9831 116.594 14.987V14.9896Z" fill="#29254D"/>
    <path d="M130.402 11.9044C129.555 11.4135 128.542 11.1667 127.383 11.1667C126.223 11.1667 125.165 11.4188 124.254 11.9177C123.342 12.4167 122.617 13.1146 122.104 13.9931C121.593 14.8662 121.334 15.88 121.334 17.0106C121.334 18.1412 121.61 19.147 122.152 20.0202C122.696 20.896 123.458 21.5939 124.42 22.0902C125.374 22.5839 126.474 22.8333 127.688 22.8333C128.37 22.8333 129.09 22.7139 129.826 22.4803C130.568 22.2442 131.203 21.9336 131.705 21.5594C132.188 21.2144 132.27 20.8004 132.253 20.5164C132.23 20.1422 132.044 19.8052 131.688 19.5106C131.406 19.2877 131.056 19.1709 130.687 19.1842C130.334 19.1948 130.007 19.3009 129.705 19.5106C129.479 19.6698 129.172 19.8132 128.788 19.9405C128.41 20.0653 128.04 20.129 127.688 20.129C127.019 20.129 126.421 19.991 125.913 19.7203C125.399 19.4469 125.01 19.086 124.719 18.6162C124.64 18.4862 124.573 18.3535 124.513 18.2102H131.502C131.917 18.2102 132.284 18.0775 132.563 17.8227C132.848 17.5626 133 17.2229 133 16.8381C133 15.7553 132.78 14.7813 132.343 13.94C131.897 13.0801 131.243 12.3981 130.393 11.9044H130.402ZM127.383 13.871C127.953 13.871 128.415 13.9851 128.799 14.224C129.189 14.4655 129.482 14.7866 129.696 15.2059C129.764 15.336 129.821 15.474 129.868 15.6199H124.542C124.578 15.5297 124.615 15.4421 124.66 15.3599C124.9 14.8954 125.238 14.5398 125.698 14.2718C126.155 14.0064 126.72 13.8737 127.383 13.8737V13.871Z" fill="#29254D"/>
    <path d="M142.36 16.3274C141.764 16.0063 140.989 15.7543 139.991 15.5499C139.349 15.4173 138.863 15.282 138.545 15.1493C138.195 15.0034 138.101 14.8866 138.077 14.8521C138.014 14.754 137.983 14.6505 137.983 14.5231C137.983 14.4143 138.004 14.2896 138.265 14.1596C138.573 14.0057 138.968 13.9261 139.435 13.9261C139.855 13.9261 140.229 13.9765 140.54 14.0747C140.824 14.1649 141.096 14.3347 141.352 14.5868C141.613 14.8362 141.937 14.9954 142.31 15.0644C142.72 15.1413 143.101 15.0644 143.433 14.8336C143.757 14.5868 143.94 14.2551 143.961 13.8757C143.974 13.6236 143.921 13.2442 143.6 12.8727C143.169 12.3341 142.587 11.9096 141.871 11.6071C141.172 11.3152 140.365 11.1667 139.472 11.1667C138.777 11.1667 138.098 11.2834 137.456 11.5116C136.785 11.7504 136.226 12.1219 135.792 12.6127C135.33 13.1381 135.095 13.7988 135.095 14.5815C135.095 15.4757 135.442 16.2398 136.129 16.8527C136.777 17.4312 137.756 17.8451 139.135 18.1237C140.247 18.3253 140.728 18.5562 140.937 18.7154C141.234 18.9409 141.268 19.1293 141.263 19.2646C141.258 19.3999 141.216 19.5803 140.916 19.7687C140.621 19.9571 140.153 20.0526 139.529 20.0526C139.028 20.0526 138.571 19.9624 138.169 19.782C137.67 19.5591 137.435 19.3628 137.315 19.2275C137.054 18.9436 136.738 18.7764 136.369 18.7286C135.98 18.6782 135.599 18.8029 135.244 19.0921C134.92 19.3442 134.724 19.6891 134.677 20.0898C134.628 20.509 134.756 20.8964 135.061 21.2254C135.529 21.7004 136.176 22.0904 136.991 22.3902C137.79 22.6847 138.667 22.8333 139.602 22.8333C140.537 22.8333 141.388 22.6768 142.049 22.3637C142.731 22.0426 143.258 21.5995 143.618 21.0476C143.981 20.4904 144.167 19.8589 144.167 19.1691C144.167 18.5615 144.021 18.0149 143.731 17.5426C143.443 17.0756 142.981 16.6697 142.357 16.3327L142.36 16.3274Z" fill="#29254D"/>
    <path d="M147.5 7.16663C147.053 7.16663 146.646 7.337 146.325 7.65798C145.999 7.98391 145.834 8.37897 145.834 8.83329C145.834 9.28761 146.004 9.68761 146.325 10.0086C146.646 10.3296 147.053 10.5 147.5 10.5C147.947 10.5 148.355 10.3296 148.676 10.0086C148.997 9.68761 149.167 9.28021 149.167 8.83329C149.167 8.38638 149.002 7.98391 148.676 7.65798C148.355 7.337 147.947 7.16663 147.5 7.16663Z" fill="#29254D"/>
    <path d="M147.5 11.6667C147.039 11.6667 146.63 11.8057 146.319 12.0709C146.001 12.3411 145.834 12.7041 145.834 13.1263V21.3738C145.834 21.7806 145.998 22.1409 146.313 22.4138C146.627 22.6892 147.036 22.8334 147.5 22.8334C147.965 22.8334 148.4 22.6867 148.705 22.4086C149.008 22.1358 149.167 21.778 149.167 21.3738V13.1263C149.167 12.7092 149.005 12.3463 148.7 12.076C148.394 11.8083 147.979 11.6667 147.5 11.6667Z" fill="#29254D"/>
    <path d="M160.059 11.9261C159.148 11.4225 158.097 11.1667 156.932 11.1667C155.767 11.1667 154.696 11.4225 153.785 11.9261C152.871 12.4324 152.143 13.138 151.619 14.0267C151.098 14.9128 150.833 15.9442 150.833 17.0942C150.833 18.2441 151.078 19.2459 151.561 20.1293C152.048 21.0207 152.726 21.729 153.576 22.2353C154.432 22.7443 155.424 23.0055 156.528 23.0055C157.559 23.0055 158.487 22.7443 159.287 22.2272C159.499 22.0899 159.7 21.9364 159.889 21.7721C159.831 22.2541 159.705 22.6743 159.507 23.0298C159.234 23.5226 158.883 23.8835 158.429 24.1339C157.969 24.3871 157.475 24.511 156.929 24.511C156.319 24.511 155.77 24.4032 155.296 24.1932C154.822 23.9804 154.443 23.6949 154.142 23.3314C153.896 23.0163 153.573 22.817 153.175 22.7389C152.768 22.6581 152.363 22.7389 151.996 22.9786C151.661 23.1994 151.446 23.5118 151.371 23.8808C151.318 24.1474 151.324 24.5567 151.672 24.9984C152.299 25.7606 153.08 26.3477 153.986 26.7435C154.883 27.1367 155.859 27.3333 156.884 27.3333C158.08 27.3333 159.153 27.0586 160.073 26.5173C160.99 25.9787 161.718 25.2408 162.231 24.3278C162.741 23.4176 163 22.3969 163 21.2873V17.0996C163 15.9496 162.735 14.9181 162.214 14.0321C161.69 13.1434 160.962 12.4351 160.048 11.9315L160.059 11.9261ZM158.493 19.7953C158.041 20.0566 157.531 20.1831 156.935 20.1831C156.338 20.1831 155.825 20.0566 155.377 19.7953C154.922 19.5314 154.577 19.1813 154.315 18.7181C154.053 18.2576 153.922 17.7109 153.922 17.0969C153.922 16.4828 154.055 15.9307 154.317 15.4621C154.579 14.9962 154.925 14.6408 155.379 14.3795C155.831 14.1183 156.341 13.9917 156.937 13.9917C157.534 13.9917 158.047 14.1183 158.496 14.3795C158.947 14.6408 159.29 14.9935 159.544 15.4595C159.8 15.9281 159.931 16.4801 159.931 17.0969C159.931 17.7136 159.8 18.263 159.546 18.7235C159.29 19.184 158.947 19.5341 158.496 19.7953H158.493Z" fill="#29254D"/>
    <path d="M174.677 13.6646C174.236 12.8497 173.624 12.2212 172.856 11.7951C172.1 11.377 171.238 11.1667 170.292 11.1667C169.346 11.1667 168.546 11.377 167.809 11.7871C167.684 11.8564 167.564 11.9309 167.447 12.0135C167.384 11.8937 167.303 11.7845 167.21 11.6859C166.939 11.409 166.571 11.2625 166.147 11.2625C165.722 11.2625 165.375 11.4063 165.099 11.6806C164.818 11.9576 164.667 12.3357 164.667 12.7725V21.3234C164.667 21.7442 164.813 22.117 165.091 22.3993C165.367 22.6842 165.732 22.8333 166.144 22.8333C166.556 22.8333 166.941 22.6815 167.212 22.3913C167.481 22.109 167.621 21.7388 167.621 21.3207V15.9148C167.621 15.55 167.712 15.2411 167.903 14.9641C168.103 14.6712 168.372 14.4422 168.723 14.2611C169.072 14.0827 169.474 13.9921 169.917 13.9921C170.409 13.9921 170.844 14.0853 171.214 14.2717C171.568 14.4502 171.842 14.7165 172.056 15.0893C172.269 15.4648 172.379 15.9734 172.379 16.6045V21.3207C172.379 21.7415 172.525 22.1143 172.803 22.3966C173.08 22.6815 173.444 22.8307 173.856 22.8307C174.268 22.8307 174.632 22.6815 174.909 22.3966C175.187 22.1116 175.333 21.7415 175.333 21.3207V16.6045C175.333 15.4568 175.112 14.4688 174.677 13.6619V13.6646Z" fill="#29254D"/>
</svg> -->
<svg width="176" height="30" viewBox="0 0 176 30" fill="none"
    xmlns="http://www.w3.org/2000/svg">
    <path d="M19.0821 10.897C21.3299 8.64533 21.3299 4.94047 19.0821 2.68877C16.8342 0.437075 13.1357 0.437075 10.8878 2.68877C8.63994 4.94047 8.63994 8.64533 10.8878 10.897C12.2527 12.2643 13.62 13.6339 14.9849 15.0012C16.3499 13.6339 17.7171 12.2643 19.0821 10.897Z" fill="#C2BEE6" stroke="white" stroke-width="1.5"/>
    <path d="M10.8903 27.3112C13.1382 29.5629 16.8367 29.5629 19.0846 27.3112C21.3324 25.0595 21.3324 21.3547 19.0846 19.103C16.3524 16.3684 13.6225 13.6316 10.8903 10.897C10.5914 10.5953 9.25193 9.17924 9.19631 6.93683C9.13606 4.51103 10.6261 2.95574 10.8903 2.68878C8.15812 5.42564 5.42824 8.16018 2.69605 10.897C2.37393 11.222 1.10864 12.5777 1.00667 14.7203C0.88617 17.2111 2.43418 18.8383 2.69605 19.1053L10.8903 27.3112Z" fill="#665DC0" stroke="white" stroke-width="1.5"/>
    <path d="M27.2509 19.103C25.003 21.3547 25.003 25.0595 27.2509 27.3112C29.4987 29.5629 33.1973 29.5629 35.4451 27.3112C37.693 25.0595 37.693 21.3547 35.4451 19.103C34.0802 17.7357 32.713 16.3661 31.348 14.9988C29.9831 16.3661 28.6158 17.7357 27.2509 19.103Z" fill="#C2BEE6" stroke="white" stroke-width="1.5"/>
    <path d="M35.4432 2.68878C33.1954 0.437083 29.4968 0.437083 27.249 2.68878C25.0011 4.94048 25.0011 8.64533 27.249 10.897C29.9812 13.6316 32.711 16.3684 35.4432 19.103C35.7422 19.4047 37.0816 20.8208 37.1372 23.0632C37.1975 25.489 35.7074 27.0443 35.4432 27.3112C38.1754 24.5744 40.9053 21.8398 43.6375 19.103C43.9596 18.778 45.2249 17.4223 45.3269 15.2797C45.4474 12.7889 43.8994 11.1617 43.6375 10.8947L35.4432 2.68878Z" fill="#665DC0" stroke="white" stroke-width="1.5"/>
    <path d="M55.7089 11.3913C56.1578 10.929 56.6853 10.5606 57.2759 10.2964C57.8586 10.0373 58.4885 9.90518 59.1525 9.90518C59.8953 9.90518 60.4885 9.99663 60.9189 10.1745C61.3651 10.3599 61.8061 10.6343 62.2286 10.9874C62.2365 10.9925 62.2418 10.9976 62.2496 11.0026C62.583 11.2541 62.9399 11.3634 63.3126 11.338C63.6722 11.31 63.9845 11.1779 64.2418 10.9493C64.52 10.7003 64.667 10.3726 64.667 9.99918C64.667 9.84929 64.6538 9.71973 64.625 9.60033C64.5908 9.45807 64.5252 9.32089 64.4307 9.18879C64.3415 9.06431 64.2234 8.94745 64.0974 8.85599C63.3494 8.26154 62.5882 7.82713 61.8349 7.56293C61.0816 7.30127 60.1788 7.16663 59.1525 7.16663C58.0502 7.16663 57.0134 7.3724 56.0685 7.77632C55.1289 8.18025 54.2942 8.74422 53.5882 9.45299C52.8822 10.1618 52.3257 10.9976 51.9294 11.9375C51.5331 12.8775 51.3336 13.9063 51.3336 14.9911C51.3336 16.0758 51.5331 17.125 51.9294 18.07C52.3231 19.0151 52.8822 19.8559 53.5882 20.5647C54.2942 21.276 55.1341 21.8375 56.0816 22.2338C57.0318 22.6326 58.0659 22.8333 59.1525 22.8333C60.0659 22.8333 60.9478 22.6885 61.7772 22.4014C62.604 22.1169 63.3887 21.6876 64.1105 21.1312C64.1263 21.1185 64.142 21.1058 64.1551 21.0931C64.3047 20.9483 64.4176 20.7857 64.4937 20.6104C64.5698 20.4326 64.6092 20.2472 64.6092 20.0566C64.6092 19.6552 64.4832 19.3225 64.2365 19.0735C63.9977 18.8347 63.6906 18.6924 63.3441 18.6645C62.9977 18.6365 62.6512 18.7382 62.3179 18.9719C61.8297 19.3225 61.3152 19.5968 60.7877 19.7924C60.2785 19.983 59.7273 20.0795 59.1525 20.0795C58.4858 20.0795 57.8533 19.9499 57.2706 19.6934C56.6827 19.4368 56.1551 19.071 55.7063 18.6111C55.2575 18.1488 54.9005 17.6026 54.6486 16.9904C54.3966 16.3756 54.2706 15.7049 54.2706 14.9911C54.2706 14.2772 54.3992 13.6243 54.6486 13.0096C54.9005 12.3948 55.2575 11.8537 55.7089 11.3913Z" fill="#29254D"/>
    <path d="M75.1744 11.9152C74.301 11.4188 73.294 11.1667 72.1776 11.1667C71.0611 11.1667 70.0355 11.4188 69.1621 11.9152C68.286 12.4143 67.5889 13.1098 67.0868 13.9858C66.5873 14.8591 66.3336 15.8758 66.3336 17.0093C66.3336 18.1428 66.5873 19.1409 67.0868 20.0142C67.5889 20.8902 68.286 21.5883 69.1621 22.0847C70.0355 22.5811 71.0504 22.8333 72.1776 22.8333C73.3047 22.8333 74.3197 22.5811 75.1931 22.0847C76.0691 21.5857 76.7636 20.8876 77.2604 20.0116C77.7518 19.1382 78.0002 18.1295 78.0002 17.0093C78.0002 15.8891 77.7465 14.8591 77.247 13.9858C76.7449 13.1098 76.0478 12.4116 75.1717 11.9152H75.1744ZM72.1776 20.054C71.6033 20.054 71.1145 19.9293 70.6845 19.6718C70.2492 19.4116 69.918 19.0665 69.6669 18.61C69.4158 18.156 69.2903 17.6172 69.2903 17.0119C69.2903 16.4067 69.4185 15.8625 69.6696 15.4006C69.9206 14.9414 70.2518 14.591 70.6872 14.3335C71.1199 14.076 71.6087 13.9513 72.1802 13.9513C72.7518 13.9513 73.2433 14.076 73.6733 14.3335C74.106 14.591 74.4345 14.9387 74.6776 15.398C74.9233 15.8599 75.0488 16.404 75.0488 17.0119C75.0488 17.6198 74.9233 18.1613 74.6802 18.6153C74.4345 19.0692 74.106 19.4143 73.6733 19.6718C73.2406 19.9293 72.7518 20.054 72.1776 20.054V20.054Z" fill="#29254D"/>
    <path d="M89.8213 7.16663C89.4046 7.16663 89.0332 7.30639 88.7474 7.57298C88.4588 7.84475 88.3065 8.20969 88.3065 8.63416V12.4596C88.0447 12.2707 87.7615 12.105 87.4597 11.9627C86.7464 11.6236 85.9636 11.4528 85.1274 11.4528C84.0935 11.4528 83.1505 11.709 82.3223 12.2137C81.5021 12.7132 80.8476 13.3991 80.3747 14.2532C79.9045 15.1022 79.6667 16.0728 79.6667 17.134C79.6667 18.1952 79.9259 19.1813 80.4415 20.0406C80.9544 20.8973 81.6597 21.5858 82.5387 22.0827C83.4203 22.5796 84.4194 22.8333 85.5094 22.8333C86.5994 22.8333 87.5986 22.5796 88.4722 22.0827C89.3431 21.5858 90.0457 20.8999 90.5587 20.0432C91.0716 19.1839 91.3334 18.2055 91.3334 17.1366V8.63416C91.3334 8.21487 91.1865 7.84992 90.906 7.57816C90.6281 7.30898 90.2514 7.16663 89.816 7.16663H89.8213ZM85.5121 20.1182C84.9644 20.1182 84.4862 19.994 84.0481 19.7377C83.6073 19.4789 83.268 19.1321 83.0089 18.674C82.7524 18.2184 82.6215 17.7008 82.6215 17.134C82.6215 16.5671 82.7497 16.0391 83.0062 15.5966C83.2627 15.1514 83.6046 14.8071 84.0481 14.5483C84.4862 14.2921 84.9644 14.1652 85.5121 14.1652C86.0598 14.1652 86.5513 14.2895 86.9841 14.5457C87.4196 14.8045 87.7535 15.1462 88.0073 15.5914C88.2585 16.034 88.384 16.5516 88.384 17.1314C88.384 17.7111 88.2558 18.221 88.0047 18.6766C87.7535 19.1321 87.4196 19.4789 86.9841 19.7377C86.554 19.994 86.0731 20.1182 85.5121 20.1182Z" fill="#29254D"/>
    <path d="M102.068 11.9044C101.222 11.4135 100.209 11.1667 99.049 11.1667C97.8894 11.1667 96.8314 11.4188 95.9201 11.9177C95.0087 12.4167 94.2836 13.1146 93.7701 13.9931C93.2594 14.8662 92.9999 15.88 92.9999 17.0106C92.9999 18.1412 93.2764 19.147 93.8181 20.0202C94.3626 20.896 95.1244 21.5939 96.0865 22.0902C97.0402 22.5839 98.1405 22.8333 99.3538 22.8333C100.037 22.8333 100.756 22.7139 101.492 22.4803C102.234 22.2442 102.869 21.9336 103.372 21.5594C103.854 21.2144 103.936 20.8004 103.919 20.5164C103.896 20.1422 103.71 19.8052 103.355 19.5106C103.072 19.2877 102.723 19.1709 102.353 19.1842C102 19.1948 101.673 19.3009 101.371 19.5106C101.145 19.6698 100.838 19.8132 100.454 19.9405C100.076 20.0653 99.7064 20.129 99.3538 20.129C98.6851 20.129 98.0869 19.991 97.5791 19.7203C97.0656 19.4469 96.6762 19.086 96.3856 18.6162C96.3066 18.4862 96.2389 18.3535 96.1796 18.2102H103.168C103.583 18.2102 103.95 18.0775 104.229 17.8227C104.514 17.5626 104.667 17.2229 104.667 16.8381C104.667 15.7553 104.446 14.7813 104.009 13.94C103.563 13.0801 102.909 12.3981 102.06 11.9044H102.068ZM99.049 13.871C99.619 13.871 100.082 13.9851 100.465 14.224C100.855 14.4655 101.148 14.7866 101.363 15.2059C101.43 15.336 101.487 15.474 101.535 15.6199H96.2079C96.2445 15.5297 96.284 15.4421 96.3264 15.3599C96.5662 14.8954 96.9048 14.5398 97.3646 14.2718C97.8217 14.0064 98.386 13.8737 99.049 13.8737V13.871Z" fill="#29254D"/>
    <path d="M117.375 9.37203C116.64 8.66984 115.766 8.11849 114.773 7.73878C113.784 7.35908 112.676 7.16663 111.478 7.16663H107.907C107.479 7.16663 107.092 7.31227 106.796 7.58534C106.492 7.86362 106.333 8.23552 106.333 8.66203V21.3379C106.333 21.7488 106.492 22.1155 106.791 22.399C107.09 22.6825 107.476 22.8333 107.909 22.8333H111.481C112.679 22.8333 113.787 22.6408 114.776 22.2611C115.768 21.8814 116.643 21.3301 117.378 20.6279C118.112 19.9257 118.682 19.0831 119.077 18.1286C119.469 17.1794 119.666 16.1235 119.666 14.9896C119.666 13.8556 119.469 12.8024 119.074 11.8583C118.68 10.9116 118.109 10.0742 117.375 9.36943V9.37203ZM116.594 14.9896C116.594 15.983 116.372 16.8699 115.93 17.6319C115.492 18.3887 114.886 18.9894 114.126 19.4212C113.367 19.8503 112.476 20.0687 111.476 20.0687H109.477V9.92858H111.476C112.476 9.92858 113.37 10.1444 114.129 10.5684C114.889 10.9923 115.494 11.5878 115.93 12.3368C116.369 13.091 116.594 13.9831 116.594 14.987V14.9896Z" fill="#29254D"/>
    <path d="M130.402 11.9044C129.555 11.4135 128.542 11.1667 127.383 11.1667C126.223 11.1667 125.165 11.4188 124.254 11.9177C123.342 12.4167 122.617 13.1146 122.104 13.9931C121.593 14.8662 121.334 15.88 121.334 17.0106C121.334 18.1412 121.61 19.147 122.152 20.0202C122.696 20.896 123.458 21.5939 124.42 22.0902C125.374 22.5839 126.474 22.8333 127.688 22.8333C128.37 22.8333 129.09 22.7139 129.826 22.4803C130.568 22.2442 131.203 21.9336 131.705 21.5594C132.188 21.2144 132.27 20.8004 132.253 20.5164C132.23 20.1422 132.044 19.8052 131.688 19.5106C131.406 19.2877 131.056 19.1709 130.687 19.1842C130.334 19.1948 130.007 19.3009 129.705 19.5106C129.479 19.6698 129.172 19.8132 128.788 19.9405C128.41 20.0653 128.04 20.129 127.688 20.129C127.019 20.129 126.421 19.991 125.913 19.7203C125.399 19.4469 125.01 19.086 124.719 18.6162C124.64 18.4862 124.573 18.3535 124.513 18.2102H131.502C131.917 18.2102 132.284 18.0775 132.563 17.8227C132.848 17.5626 133 17.2229 133 16.8381C133 15.7553 132.78 14.7813 132.343 13.94C131.897 13.0801 131.243 12.3981 130.393 11.9044H130.402ZM127.383 13.871C127.953 13.871 128.415 13.9851 128.799 14.224C129.189 14.4655 129.482 14.7866 129.696 15.2059C129.764 15.336 129.821 15.474 129.868 15.6199H124.542C124.578 15.5297 124.615 15.4421 124.66 15.3599C124.9 14.8954 125.238 14.5398 125.698 14.2718C126.155 14.0064 126.72 13.8737 127.383 13.8737V13.871Z" fill="#29254D"/>
    <path d="M142.36 16.3274C141.764 16.0063 140.989 15.7543 139.991 15.5499C139.349 15.4173 138.863 15.282 138.545 15.1493C138.195 15.0034 138.101 14.8866 138.077 14.8521C138.014 14.754 137.983 14.6505 137.983 14.5231C137.983 14.4143 138.004 14.2896 138.265 14.1596C138.573 14.0057 138.968 13.9261 139.435 13.9261C139.855 13.9261 140.229 13.9765 140.54 14.0747C140.824 14.1649 141.096 14.3347 141.352 14.5868C141.613 14.8362 141.937 14.9954 142.31 15.0644C142.72 15.1413 143.101 15.0644 143.433 14.8336C143.757 14.5868 143.94 14.2551 143.961 13.8757C143.974 13.6236 143.921 13.2442 143.6 12.8727C143.169 12.3341 142.587 11.9096 141.871 11.6071C141.172 11.3152 140.365 11.1667 139.472 11.1667C138.777 11.1667 138.098 11.2834 137.456 11.5116C136.785 11.7504 136.226 12.1219 135.792 12.6127C135.33 13.1381 135.095 13.7988 135.095 14.5815C135.095 15.4757 135.442 16.2398 136.129 16.8527C136.777 17.4312 137.756 17.8451 139.135 18.1237C140.247 18.3253 140.728 18.5562 140.937 18.7154C141.234 18.9409 141.268 19.1293 141.263 19.2646C141.258 19.3999 141.216 19.5803 140.916 19.7687C140.621 19.9571 140.153 20.0526 139.529 20.0526C139.028 20.0526 138.571 19.9624 138.169 19.782C137.67 19.5591 137.435 19.3628 137.315 19.2275C137.054 18.9436 136.738 18.7764 136.369 18.7286C135.98 18.6782 135.599 18.8029 135.244 19.0921C134.92 19.3442 134.724 19.6891 134.677 20.0898C134.628 20.509 134.756 20.8964 135.061 21.2254C135.529 21.7004 136.176 22.0904 136.991 22.3902C137.79 22.6847 138.667 22.8333 139.602 22.8333C140.537 22.8333 141.388 22.6768 142.049 22.3637C142.731 22.0426 143.258 21.5995 143.618 21.0476C143.981 20.4904 144.167 19.8589 144.167 19.1691C144.167 18.5615 144.021 18.0149 143.731 17.5426C143.443 17.0756 142.981 16.6697 142.357 16.3327L142.36 16.3274Z" fill="#29254D"/>
    <path d="M147.5 7.16663C147.053 7.16663 146.646 7.337 146.325 7.65798C145.999 7.98391 145.834 8.37897 145.834 8.83329C145.834 9.28761 146.004 9.68761 146.325 10.0086C146.646 10.3296 147.053 10.5 147.5 10.5C147.947 10.5 148.355 10.3296 148.676 10.0086C148.997 9.68761 149.167 9.28021 149.167 8.83329C149.167 8.38638 149.002 7.98391 148.676 7.65798C148.355 7.337 147.947 7.16663 147.5 7.16663V7.16663Z" fill="#29254D"/>
    <path d="M147.5 11.6667C147.039 11.6667 146.63 11.8057 146.319 12.0709C146.001 12.3411 145.834 12.7041 145.834 13.1263V21.3738C145.834 21.7806 145.998 22.1409 146.313 22.4138C146.627 22.6892 147.036 22.8334 147.5 22.8334C147.965 22.8334 148.4 22.6867 148.705 22.4086C149.008 22.1358 149.167 21.778 149.167 21.3738V13.1263C149.167 12.7092 149.005 12.3463 148.7 12.076C148.394 11.8083 147.979 11.6667 147.5 11.6667V11.6667Z" fill="#29254D"/>
    <path d="M160.059 11.9261C159.148 11.4225 158.097 11.1667 156.932 11.1667C155.767 11.1667 154.696 11.4225 153.785 11.9261C152.871 12.4324 152.143 13.138 151.619 14.0267C151.098 14.9128 150.833 15.9442 150.833 17.0942C150.833 18.2441 151.078 19.2459 151.561 20.1293C152.048 21.0207 152.726 21.729 153.576 22.2353C154.432 22.7443 155.424 23.0055 156.528 23.0055C157.559 23.0055 158.487 22.7443 159.287 22.2272C159.499 22.0899 159.7 21.9364 159.889 21.7721C159.831 22.2541 159.705 22.6743 159.507 23.0298C159.234 23.5226 158.883 23.8835 158.429 24.1339C157.969 24.3871 157.475 24.511 156.929 24.511C156.319 24.511 155.77 24.4032 155.296 24.1932C154.822 23.9804 154.443 23.6949 154.142 23.3314C153.896 23.0163 153.573 22.817 153.175 22.7389C152.768 22.6581 152.363 22.7389 151.996 22.9786C151.661 23.1994 151.446 23.5118 151.371 23.8808C151.318 24.1474 151.324 24.5567 151.672 24.9984C152.299 25.7606 153.08 26.3477 153.986 26.7435C154.883 27.1367 155.859 27.3333 156.884 27.3333C158.08 27.3333 159.153 27.0586 160.073 26.5173C160.99 25.9787 161.718 25.2408 162.231 24.3278C162.741 23.4176 163 22.3969 163 21.2873V17.0996C163 15.9496 162.735 14.9181 162.214 14.0321C161.69 13.1434 160.962 12.4351 160.048 11.9315L160.059 11.9261ZM158.493 19.7953C158.041 20.0566 157.531 20.1831 156.935 20.1831C156.338 20.1831 155.825 20.0566 155.377 19.7953C154.922 19.5314 154.577 19.1813 154.315 18.7181C154.053 18.2576 153.922 17.7109 153.922 17.0969C153.922 16.4828 154.055 15.9307 154.317 15.4621C154.579 14.9962 154.925 14.6408 155.379 14.3795C155.831 14.1183 156.341 13.9917 156.937 13.9917C157.534 13.9917 158.047 14.1183 158.496 14.3795C158.947 14.6408 159.29 14.9935 159.544 15.4595C159.8 15.9281 159.931 16.4801 159.931 17.0969C159.931 17.7136 159.8 18.263 159.546 18.7235C159.29 19.184 158.947 19.5341 158.496 19.7953H158.493Z" fill="#29254D"/>
    <path d="M174.677 13.6646C174.236 12.8497 173.624 12.2212 172.856 11.7951C172.1 11.377 171.238 11.1667 170.292 11.1667C169.346 11.1667 168.546 11.377 167.809 11.7871C167.684 11.8564 167.564 11.9309 167.447 12.0135C167.384 11.8937 167.303 11.7845 167.21 11.6859C166.939 11.409 166.571 11.2625 166.147 11.2625C165.722 11.2625 165.375 11.4063 165.099 11.6806C164.818 11.9576 164.667 12.3357 164.667 12.7725V21.3234C164.667 21.7442 164.813 22.117 165.091 22.3993C165.367 22.6842 165.732 22.8333 166.144 22.8333C166.556 22.8333 166.941 22.6815 167.212 22.3913C167.481 22.109 167.621 21.7388 167.621 21.3207V15.9148C167.621 15.55 167.712 15.2411 167.903 14.9641C168.103 14.6712 168.372 14.4422 168.723 14.2611C169.072 14.0827 169.474 13.9921 169.917 13.9921C170.409 13.9921 170.844 14.0853 171.214 14.2717C171.568 14.4502 171.842 14.7165 172.056 15.0893C172.269 15.4648 172.379 15.9734 172.379 16.6045V21.3207C172.379 21.7415 172.525 22.1143 172.803 22.3966C173.08 22.6815 173.444 22.8307 173.856 22.8307C174.268 22.8307 174.632 22.6815 174.909 22.3966C175.187 22.1116 175.333 21.7415 175.333 21.3207V16.6045C175.333 15.4568 175.112 14.4688 174.677 13.6619V13.6646Z" fill="#29254D"/>
</svg>
